<svg width="21" height="22" viewBox="0 0 21 22" fill="none" xmlns="http://www.w3.org/2000/svg">
<path d="M1.73633 12.8101C0.845215 12.8101 0.112793 12.0898 0.112793 11.1865C0.112793 10.2954 0.845215 9.56299 1.73633 9.56299H8.84082V2.4585C8.84082 1.56738 9.57324 0.834961 10.4644 0.834961C11.3555 0.834961 12.0879 1.56738 12.0879 2.4585V9.56299H19.1924C20.0835 9.56299 20.8159 10.2954 20.8159 11.1865C20.8159 12.0898 20.0835 12.8101 19.1924 12.8101H12.0879V19.9146C12.0879 20.8057 11.3555 21.5381 10.4644 21.5381C9.57324 21.5381 8.84082 20.8057 8.84082 19.9146V12.8101H1.73633Z" fill="white"/>
</svg>
