<svg width="23" height="20" viewBox="0 0 23 20" fill="none" xmlns="http://www.w3.org/2000/svg">
<path d="M18.1743 20C20.0948 20 21.5625 18.35 21.5625 16.4286V5.71429H1.4375V16.4286C1.4375 18.35 2.90519 20 4.82569 20H18.1743ZM7.90625 8.57143H15.0938C15.2844 8.57143 15.4672 8.64668 15.602 8.78064C15.7368 8.91459 15.8125 9.09627 15.8125 9.28571C15.8125 9.47515 15.7368 9.65684 15.602 9.79079C15.4672 9.92475 15.2844 10 15.0938 10H7.90625C7.71563 10 7.53281 9.92475 7.39802 9.79079C7.26323 9.65684 7.1875 9.47515 7.1875 9.28571C7.1875 9.09627 7.26323 8.91459 7.39802 8.78064C7.53281 8.64668 7.71563 8.57143 7.90625 8.57143ZM1.15 0C0.845001 0 0.552494 0.120408 0.336827 0.334735C0.12116 0.549062 0 0.839753 0 1.14286L0 2.85714C0 3.16025 0.12116 3.45094 0.336827 3.66527C0.552494 3.87959 0.845001 4 1.15 4H21.85C22.155 4 22.4475 3.87959 22.6632 3.66527C22.8788 3.45094 23 3.16025 23 2.85714V1.14286C23 0.839753 22.8788 0.549062 22.6632 0.334735C22.4475 0.120408 22.155 0 21.85 0H1.15Z" fill="#585858"/>
</svg>
