<svg width="19" height="20" viewBox="0 0 19 20" fill="none" xmlns="http://www.w3.org/2000/svg">
<path d="M12.8956 5.93959L6.79221 11.8912C6.68914 11.9883 6.60693 12.1044 6.55038 12.2327C6.49383 12.3611 6.46406 12.4991 6.46281 12.6388C6.46157 12.7785 6.48887 12.9171 6.54313 13.0464C6.59739 13.1757 6.67751 13.2931 6.77883 13.3919C6.88015 13.4907 7.00063 13.5688 7.13325 13.6217C7.26587 13.6746 7.40796 13.7012 7.55124 13.7C7.69452 13.6988 7.83612 13.6698 7.96778 13.6146C8.09943 13.5595 8.2185 13.4794 8.31805 13.3789L14.4225 7.42829C15.0296 6.83633 15.3707 6.03346 15.3707 5.1963C15.3707 4.35914 15.0296 3.55627 14.4225 2.9643C13.8153 2.37234 12.9918 2.03978 12.1332 2.03978C11.2745 2.03978 10.451 2.37234 9.84388 2.9643L3.73945 8.91594C3.22804 9.40213 2.82074 9.98249 2.54118 10.6234C2.26161 11.2642 2.11535 11.9528 2.11088 12.6492C2.1064 13.3456 2.2438 14.036 2.5151 14.6802C2.78641 15.3244 3.18622 15.9097 3.69134 16.4021C4.19646 16.8945 4.79683 17.2842 5.45764 17.5487C6.11845 17.8131 6.82653 17.947 7.54081 17.9425C8.25509 17.938 8.96136 17.7953 9.61863 17.5227C10.2759 17.25 10.8711 16.8528 11.3697 16.3542L17.4742 10.4036L19 11.8912L12.8956 17.8429C12.1941 18.5268 11.3614 19.0693 10.4449 19.4394C9.52836 19.8095 8.54606 20 7.55405 20C6.56204 20 5.57974 19.8095 4.66324 19.4394C3.74674 19.0693 2.91399 18.5268 2.21253 17.8429C1.51107 17.159 0.954644 16.3471 0.575017 15.4535C0.195391 14.5599 -7.39106e-09 13.6022 0 12.635C7.39106e-09 11.6679 0.195391 10.7102 0.575017 9.8166C0.954644 8.92305 1.51107 8.11114 2.21253 7.42724L8.31805 1.47666C9.33564 0.518434 10.6986 -0.0117866 12.1132 0.000198857C13.5279 0.0121843 14.8812 0.565417 15.8815 1.54074C16.8819 2.51606 17.4493 3.83544 17.4616 5.2147C17.4739 6.59397 16.9301 7.92276 15.9472 8.91488L9.84388 14.8686C9.54318 15.1617 9.1862 15.3942 8.79334 15.5528C8.40047 15.7114 7.97942 15.793 7.5542 15.793C7.12899 15.7929 6.70795 15.7112 6.31513 15.5525C5.9223 15.3938 5.56538 15.1613 5.26475 14.8681C4.96411 14.5749 4.72565 14.2269 4.56297 13.8438C4.4003 13.4608 4.3166 13.0503 4.31665 12.6357C4.3167 12.2212 4.4005 11.8107 4.56327 11.4277C4.72603 11.0447 4.96458 10.6967 5.26529 10.4036L11.3697 4.45195L12.8956 5.93959Z" fill="url(#paint0_linear_525_525)"/>
<defs>
<linearGradient id="paint0_linear_525_525" x1="9.5" y1="0" x2="9.5" y2="20" gradientUnits="userSpaceOnUse">
<stop stop-color="#D8386B"/>
<stop offset="1" stop-color="#8F50E9"/>
</linearGradient>
</defs>
</svg>
