<svg width="20" height="23" viewBox="0 0 20 23" fill="none" xmlns="http://www.w3.org/2000/svg">
<path d="M7.64131 19.7526C8.21144 19.625 11.6949 19.581 12.2681 19.6941C12.7583 19.8002 13.2901 20.0559 13.2974 20.6289C13.276 21.1746 12.9605 21.6623 12.5201 21.975C11.9495 22.4291 11.2769 22.7207 10.5713 22.8316C10.181 22.887 9.79684 22.893 9.41885 22.8462C8.70949 22.7532 8.02964 22.4787 7.44883 22.0379C6.99941 21.7376 6.67159 21.2581 6.63621 20.7131C6.6289 20.1401 7.15403 19.871 7.64131 19.7526ZM9.7719 0.122074C12.1507 0.092003 14.5949 1.18423 16.0621 3.02915C17.0139 4.21703 17.4588 5.41017 17.4826 7.27334L17.4888 7.75804C17.5071 9.18692 17.8974 10.0243 18.7452 10.9843C19.3874 11.6913 19.6014 12.6066 19.6141 13.6024C19.6268 14.597 19.3104 15.5453 18.6621 16.3202C17.8124 17.2501 16.6049 17.8521 15.3663 17.9698C13.5714 18.1449 11.775 18.296 9.95315 18.319C8.13015 18.342 6.33232 18.288 4.53285 18.1067C3.29046 18.0204 2.06801 17.4491 1.19592 16.541C0.528081 15.7827 0.186428 14.8427 0.173726 13.8481C0.161008 12.8524 0.352725 11.932 0.975505 11.209C1.8246 10.2275 2.16844 9.38083 2.15019 7.95194L2.144 7.46724C2.11956 5.55365 2.5832 4.29631 3.5552 3.0589C5.00078 1.25394 7.34086 0.152806 9.66961 0.123367L9.7719 0.122074Z" fill="black"/>
</svg>
