<svg width="13" height="11" viewBox="0 0 13 11" fill="none" xmlns="http://www.w3.org/2000/svg">
<path fill-rule="evenodd" clip-rule="evenodd" d="M6.74197 4.75684C6.35165 4.75684 5.98534 4.88768 5.70311 5.13367C5.42688 5.37442 5.27676 5.69369 5.28276 6.02342V6.02865C5.28276 6.36885 5.43289 6.68811 5.70911 6.92886C5.98534 7.16962 6.35165 7.30046 6.74197 7.30046C7.54664 7.30046 8.19518 6.72998 8.20119 6.02865C8.20119 5.68845 8.05106 5.36919 7.77483 5.12844C7.4986 4.88768 7.1323 4.75684 6.74197 4.75684ZM10.1108 4.79351C9.81056 4.79351 9.57036 4.58416 9.57036 4.32247C9.57036 4.06078 9.81056 3.84619 10.1108 3.84619C10.4111 3.84619 10.6573 4.06078 10.6573 4.32247C10.6573 4.58416 10.4111 4.79351 10.1108 4.79351ZM8.40541 7.48356C7.97905 7.85516 7.39056 8.08545 6.74202 8.08545C6.1115 8.08545 5.52301 7.87086 5.07264 7.48356C4.62827 7.09102 4.38206 6.57811 4.38206 6.02856C4.37606 5.48425 4.62226 4.97134 5.06663 4.5788C5.51701 4.18627 6.1115 3.97168 6.74202 3.97168C7.37255 3.97168 7.96704 4.18627 8.41141 4.57357C8.85578 4.9661 9.10199 5.48425 9.10199 6.02856C9.09598 6.59905 8.83176 7.11196 8.40541 7.48356ZM10.1296 2.37526C10.0756 2.37526 10.0335 2.34909 10.0095 2.31245L9.94945 2.19731C9.78731 1.89898 9.60116 1.55355 9.48706 1.35467C9.21083 0.883623 8.73644 0.621933 8.15396 0.616699H5.32561C4.74312 0.621933 4.27473 0.883623 3.9985 1.35467C3.8784 1.56402 3.67423 1.94085 3.50609 2.24964L3.47006 2.31245C3.45205 2.35432 3.40401 2.37526 3.35597 2.37526C1.90877 2.37526 0.737793 3.40108 0.737793 4.65719V7.76607C0.737793 9.02218 1.90877 10.048 3.35597 10.048H10.1296C11.5708 10.048 12.7478 9.02218 12.7478 7.76607V4.65719C12.7478 3.40108 11.5708 2.37526 10.1296 2.37526Z" fill="white"/>
</svg>
