<svg width="50" height="50" viewBox="0 0 50 50" fill="none" xmlns="http://www.w3.org/2000/svg">
<g filter="url(#filter0_d_142_649)">
<circle cx="25.4243" cy="23.8389" r="22" fill="white" fill-opacity="0.49"/>
<circle cx="25.4243" cy="23.8389" r="21.375" stroke="white" stroke-opacity="0.297012" stroke-width="1.25"/>
</g>
<g filter="url(#filter1_d_142_649)">
<path d="M18.7681 32.3779C19.0076 32.3779 19.3149 32.3232 19.6899 32.2139C20.0649 32.1045 20.4712 31.9535 20.9087 31.7607C21.3514 31.5732 21.7941 31.3571 22.2368 31.1123C22.6847 30.8675 23.1014 30.6097 23.4868 30.3389C23.5806 30.2764 23.6613 30.2347 23.729 30.2139C23.8019 30.193 23.8774 30.1826 23.9556 30.1826C24.0024 30.1878 24.0441 30.1904 24.0806 30.1904C24.1222 30.1904 24.1587 30.1904 24.1899 30.1904C25.3201 30.1904 26.3905 30.0758 27.4009 29.8467C28.4165 29.6227 29.3436 29.2972 30.1821 28.8701C31.0259 28.4378 31.755 27.9144 32.3696 27.2998C32.9842 26.68 33.4582 25.9769 33.7915 25.1904C34.13 24.404 34.2993 23.542 34.2993 22.6045C34.2993 21.5524 34.0571 20.568 33.5728 19.6514C33.0936 18.7295 32.4243 17.9222 31.5649 17.2295C30.7056 16.5368 29.7082 15.9951 28.5728 15.6045C27.4425 15.2139 26.2264 15.0186 24.9243 15.0186C23.6222 15.0186 22.4035 15.2139 21.2681 15.6045C20.1379 15.9951 19.1431 16.5368 18.2837 17.2295C17.4295 17.9222 16.7603 18.7295 16.2759 19.6514C15.7915 20.568 15.5493 21.5524 15.5493 22.6045C15.5493 23.4482 15.7082 24.2607 16.0259 25.042C16.3436 25.818 16.8097 26.5368 17.4243 27.1982C18.0389 27.8597 18.7889 28.4326 19.6743 28.917C19.7681 28.9691 19.8254 29.0264 19.8462 29.0889C19.867 29.1514 19.8566 29.2243 19.8149 29.3076C19.6483 29.5837 19.466 29.8519 19.2681 30.1123C19.0701 30.3779 18.88 30.6201 18.6978 30.8389C18.5207 31.0576 18.3774 31.2373 18.2681 31.3779C18.0597 31.6331 18.005 31.8623 18.104 32.0654C18.2082 32.2738 18.4295 32.3779 18.7681 32.3779Z" fill="white"/>
</g>
<defs>
<filter id="filter0_d_142_649" x="0.924316" y="0.588867" width="49" height="49" filterUnits="userSpaceOnUse" color-interpolation-filters="sRGB">
<feFlood flood-opacity="0" result="BackgroundImageFix"/>
<feColorMatrix in="SourceAlpha" type="matrix" values="0 0 0 0 0 0 0 0 0 0 0 0 0 0 0 0 0 0 127 0" result="hardAlpha"/>
<feOffset dy="1.25"/>
<feGaussianBlur stdDeviation="1.25"/>
<feColorMatrix type="matrix" values="0 0 0 0 0 0 0 0 0 0 0 0 0 0 0 0 0 0 0.15 0"/>
<feBlend mode="normal" in2="BackgroundImageFix" result="effect1_dropShadow_142_649"/>
<feBlend mode="normal" in="SourceGraphic" in2="effect1_dropShadow_142_649" result="shape"/>
</filter>
<filter id="filter1_d_142_649" x="14.2993" y="15.0186" width="21.25" height="19.8594" filterUnits="userSpaceOnUse" color-interpolation-filters="sRGB">
<feFlood flood-opacity="0" result="BackgroundImageFix"/>
<feColorMatrix in="SourceAlpha" type="matrix" values="0 0 0 0 0 0 0 0 0 0 0 0 0 0 0 0 0 0 127 0" result="hardAlpha"/>
<feOffset dy="1.25"/>
<feGaussianBlur stdDeviation="0.625"/>
<feColorMatrix type="matrix" values="0 0 0 0 1 0 0 0 0 1 0 0 0 0 1 0 0 0 0.5 0"/>
<feBlend mode="normal" in2="BackgroundImageFix" result="effect1_dropShadow_142_649"/>
<feBlend mode="normal" in="SourceGraphic" in2="effect1_dropShadow_142_649" result="shape"/>
</filter>
</defs>
</svg>
