<svg width="18" height="15" viewBox="0 0 18 15" fill="none" xmlns="http://www.w3.org/2000/svg">
<path d="M16.8354 1.21318C16.0338 0.404297 15.041 0 14.0229 0C13.0048 0 11.9878 0.404297 11.2116 1.21318L9.99212 2.4835C10.4171 2.71822 10.8209 2.99854 11.1708 3.36299C11.2593 3.45516 11.3367 3.55395 11.4167 3.65121L12.4843 2.5391C12.8951 2.11084 13.4183 1.875 14.0229 1.875C14.6043 1.875 15.1507 2.11075 15.5616 2.53887C15.9725 2.96689 16.1989 3.53613 16.1989 4.1417C16.1989 4.74727 15.9726 5.3165 15.5616 5.74453L11.8126 9.64981C11.4045 10.0518 10.8561 10.3125 10.2767 10.3125C9.69737 10.3125 9.14894 10.0767 8.73804 9.64863C8.32489 9.21973 8.07458 8.65137 8.07458 8.04492C8.07458 7.43848 8.3009 6.87012 8.71188 6.44209L8.83676 6.33984C8.77769 6.22559 8.71582 6.1084 8.62582 6.01465C8.38395 5.7627 8.06614 5.625 7.72302 5.625C7.38749 5.625 7.07334 5.76164 6.834 6.00498C5.97029 7.58584 6.16942 9.62607 7.46371 10.9737C8.24051 11.7832 9.25862 12.1875 10.2767 12.1875C11.2943 12.1875 12.3118 11.7832 13.0881 10.9743L16.8354 7.06934C17.6355 6.23584 18.0234 5.13545 17.9989 4.04297C17.9744 2.99121 17.5891 1.99688 16.8354 1.21318ZM6.58116 11.3496L5.51524 12.46C5.10462 12.8643 4.55619 13.125 3.97682 13.125C3.39549 13.125 2.84902 12.8892 2.43812 12.4611C2.02722 12.0331 1.80082 11.4639 1.80082 10.8583C1.80082 10.2527 2.02719 9.6835 2.43812 9.25547L6.18714 5.35019C6.59522 4.92188 7.11834 4.6875 7.72302 4.6875C8.3277 4.6875 8.85082 4.92328 9.26172 5.35137C9.6729 5.77939 9.89902 6.34863 9.89902 6.9542C9.89902 7.55977 9.6727 8.129 9.26172 8.55703L9.163 8.66016C9.22189 8.77556 9.28166 8.89145 9.37295 8.98682C9.61581 9.2373 9.93643 9.375 10.2767 9.375C10.6123 9.375 10.9264 9.23836 11.1658 8.99502C12.0295 7.41416 11.8303 5.37393 10.536 4.02627C9.73393 3.2168 8.74113 2.8125 7.72302 2.8125C6.70491 2.8125 5.68961 3.2168 4.91337 4.02539L1.16464 7.93066C0.388401 8.73926 0 9.79922 0 10.8592C-2.81245e-06 11.9191 0.38812 12.9791 1.16464 13.788C1.94088 14.5957 2.95871 15 3.97682 15C4.99437 15 6.01192 14.5957 6.78816 13.7868L8.00764 12.5165C7.58268 12.2818 7.17881 12.0015 6.82894 11.637C6.73866 11.5459 6.66272 11.4463 6.58116 11.3496Z" fill="#EB4887"/>
</svg>
