<svg width="20" height="21" viewBox="0 0 20 21" fill="none" xmlns="http://www.w3.org/2000/svg">
<path d="M10 0C4.47581 0 0 4.6996 0 10.5C0 16.3004 4.47581 21 10 21C15.5242 21 20 16.3004 20 10.5C20 4.6996 15.5242 0 10 0ZM13.2258 7.1129C13.9395 7.1129 14.5161 7.71835 14.5161 8.46774C14.5161 9.21714 13.9395 9.82258 13.2258 9.82258C12.5121 9.82258 11.9355 9.21714 11.9355 8.46774C11.9355 7.71835 12.5121 7.1129 13.2258 7.1129ZM6.77419 7.1129C7.4879 7.1129 8.06452 7.71835 8.06452 8.46774C8.06452 9.21714 7.4879 9.82258 6.77419 9.82258C6.06048 9.82258 5.48387 9.21714 5.48387 8.46774C5.48387 7.71835 6.06048 7.1129 6.77419 7.1129ZM14.629 14.319C13.4798 15.7669 11.7944 16.5968 10 16.5968C8.20564 16.5968 6.52016 15.7669 5.37097 14.319C4.82258 13.6288 5.81452 12.7651 6.3629 13.451C7.26613 14.5899 8.58871 15.2377 10 15.2377C11.4113 15.2377 12.7339 14.5857 13.6371 13.451C14.1774 12.7651 15.1734 13.6288 14.629 14.319Z" fill="#A0A0A0"/>
</svg>
