<svg width="24" height="23" viewBox="0 0 24 23" fill="none" xmlns="http://www.w3.org/2000/svg">
<path d="M23.1113 11.5001C23.1113 5.14878 17.9626 5.53131e-05 11.6113 5.53131e-05C5.26005 5.53131e-05 0.111328 5.14878 0.111328 11.5001C0.111328 17.24 4.31671 21.9976 9.81445 22.8604V14.8243H6.89453V11.5001H9.81445V8.96646C9.81445 6.08427 11.5313 4.49224 14.1582 4.49224C15.4164 4.49224 16.7324 4.71685 16.7324 4.71685V7.54693H15.2823C13.8537 7.54693 13.4082 8.4334 13.4082 9.34284V11.5001H16.5977L16.0878 14.8243H13.4082V22.8604C18.9059 21.9976 23.1113 17.24 23.1113 11.5001Z" fill="#1877F2"/>
</svg>
