<svg width="25" height="25" viewBox="0 0 25 25" fill="none" xmlns="http://www.w3.org/2000/svg">
<path d="M21.3387 3.66143C19.0751 1.3979 15.9538 0 12.5 0C9.046 0 5.92456 1.3979 3.66128 3.66143C1.39824 5.92485 0 9.04629 0 12.5C0 15.9537 1.39824 19.0751 3.66128 21.3387C5.92456 23.602 9.046 25 12.5 25C15.9538 25 19.0751 23.602 21.3387 21.3387C23.6017 19.0751 25 15.9537 25 12.5C25 9.04629 23.6017 5.92485 21.3387 3.66143Z" fill="#F1574A"/>
<path fill-rule="evenodd" clip-rule="evenodd" d="M13.7735 11.6279C12.853 11.6418 11.9324 11.6418 11.0119 11.6418C10.7491 11.6418 10.4792 11.6279 10.2226 11.6418C10.1676 11.6418 10.0845 11.704 10.0845 11.7386C10.0776 12.2717 10.0776 12.8047 10.0776 13.3584C10.8319 13.3584 11.5725 13.3584 12.3268 13.3584C12.3063 13.4689 12.2856 13.5519 12.2509 13.628C11.9114 14.6526 10.8524 15.158 9.71052 14.9711C8.29846 14.7357 7.42678 13.4343 7.68269 12.0225C7.71052 11.8217 7.77951 11.6279 7.8488 11.4478C8.31916 10.4235 9.47512 9.8006 10.6175 10.0567C11.0257 10.1467 11.3789 10.3337 11.676 10.6035C12.0914 10.1882 12.4861 9.79367 12.9151 9.36461C12.8875 9.34377 12.8392 9.30915 12.8116 9.27462C11.8148 8.43708 10.6724 8.12545 9.39201 8.34005C7.54387 8.63771 6.2154 10.0913 5.93166 11.7869C5.80027 12.5069 5.85549 13.275 6.13947 14.0224C6.84553 15.8154 8.65149 16.9156 10.5896 16.7011C11.5378 16.5973 12.3826 16.2584 13.033 15.5592C14.0082 14.5209 14.2646 13.275 14.1058 11.8978C14.0778 11.6695 13.988 11.6279 13.7735 11.6279Z" fill="#F6F5F6"/>
<path fill-rule="evenodd" clip-rule="evenodd" d="M19.1552 11.7424H17.6843V10.2715H16.6046V11.7424H15.1337V12.8221H16.6046V14.293H17.6843V12.8221H19.1552V11.7424Z" fill="#F6F5F6"/>
</svg>
