<svg width="50" height="50" viewBox="0 0 50 50" fill="none" xmlns="http://www.w3.org/2000/svg">
<g filter="url(#filter0_d_142_646)">
<circle cx="25.4243" cy="23.8389" r="22" fill="white" fill-opacity="0.49"/>
<circle cx="25.4243" cy="23.8389" r="21.375" stroke="white" stroke-opacity="0.297012" stroke-width="1.25"/>
</g>
<g filter="url(#filter1_d_142_646)">
<path d="M16.9399 26.792C16.9399 27.667 17.104 28.4639 17.4321 29.1826C17.7603 29.8962 18.2056 30.4639 18.7681 30.8857C19.3358 31.3076 19.979 31.5186 20.6978 31.5186H22.0259C21.3123 30.93 20.7785 30.2243 20.4243 29.4014C20.0701 28.5785 19.8983 27.68 19.9087 26.7061C19.9139 26.0446 19.979 25.4352 20.104 24.8779C20.2342 24.3206 20.4087 23.8102 20.6274 23.3467C20.8514 22.8779 21.1066 22.443 21.3931 22.042H20.3853C19.7342 22.042 19.1483 22.2503 18.6274 22.667C18.1066 23.0837 17.6951 23.6514 17.3931 24.3701C17.091 25.0889 16.9399 25.8962 16.9399 26.792ZM21.1587 26.7217C21.1535 27.5238 21.3019 28.266 21.604 28.9482C21.9113 29.6253 22.3488 30.2139 22.9165 30.7139C23.4842 31.2191 24.1665 31.6097 24.9634 31.8857C25.7655 32.167 26.6561 32.3102 27.6353 32.3154H28.7681C29.2889 32.3206 29.7524 32.305 30.1587 32.2686C30.5701 32.2321 30.9009 32.1852 31.1509 32.1279C31.5519 32.029 31.8879 31.8493 32.1587 31.5889C32.4295 31.3337 32.5649 31.0003 32.5649 30.5889C32.5649 30.443 32.5493 30.3102 32.5181 30.1904C32.492 30.0758 32.4556 29.9717 32.4087 29.8779C32.3618 29.7998 32.3722 29.7451 32.4399 29.7139C32.7212 29.568 32.9478 29.3701 33.1196 29.1201C33.2915 28.8701 33.3774 28.5837 33.3774 28.2607C33.3774 27.891 33.2889 27.5732 33.1118 27.3076C33.0493 27.2191 33.0649 27.1488 33.1587 27.0967C33.3514 26.9613 33.505 26.7764 33.6196 26.542C33.7394 26.3076 33.7993 26.0498 33.7993 25.7686C33.7993 25.5602 33.7681 25.3623 33.7056 25.1748C33.6483 24.9821 33.5701 24.8258 33.4712 24.7061C33.4035 24.6383 33.4087 24.568 33.4868 24.4951C33.6222 24.3701 33.7238 24.2087 33.7915 24.0107C33.8644 23.8128 33.9009 23.5967 33.9009 23.3623C33.9009 23.0602 33.828 22.7842 33.6821 22.5342C33.5415 22.2842 33.3488 22.0863 33.104 21.9404C32.8592 21.7946 32.5832 21.7217 32.2759 21.7217H29.3306C29.0024 21.7217 28.742 21.6488 28.5493 21.5029C28.3566 21.3519 28.2603 21.1488 28.2603 20.8936C28.2603 20.6279 28.3306 20.3102 28.4712 19.9404C28.6118 19.5654 28.7733 19.167 28.9556 18.7451C29.1431 18.318 29.3071 17.8883 29.4478 17.4561C29.5936 17.0238 29.6665 16.6175 29.6665 16.2373C29.6665 15.8102 29.5389 15.4691 29.2837 15.2139C29.0337 14.9587 28.716 14.8311 28.3306 14.8311C28.0129 14.8311 27.7524 14.9274 27.5493 15.1201C27.3462 15.3128 27.1457 15.5967 26.9478 15.9717C26.3332 17.1644 25.6483 18.2581 24.8931 19.2529C24.1379 20.2477 23.4425 21.1644 22.8071 22.0029C22.4269 22.5029 22.1144 22.9925 21.8696 23.4717C21.63 23.9456 21.453 24.4456 21.3384 24.9717C21.2238 25.4925 21.1639 26.0758 21.1587 26.7217Z" fill="white"/>
</g>
<defs>
<filter id="filter0_d_142_646" x="0.924316" y="0.588867" width="49" height="49" filterUnits="userSpaceOnUse" color-interpolation-filters="sRGB">
<feFlood flood-opacity="0" result="BackgroundImageFix"/>
<feColorMatrix in="SourceAlpha" type="matrix" values="0 0 0 0 0 0 0 0 0 0 0 0 0 0 0 0 0 0 127 0" result="hardAlpha"/>
<feOffset dy="1.25"/>
<feGaussianBlur stdDeviation="1.25"/>
<feColorMatrix type="matrix" values="0 0 0 0 0 0 0 0 0 0 0 0 0 0 0 0 0 0 0.15 0"/>
<feBlend mode="normal" in2="BackgroundImageFix" result="effect1_dropShadow_142_646"/>
<feBlend mode="normal" in="SourceGraphic" in2="effect1_dropShadow_142_646" result="shape"/>
</filter>
<filter id="filter1_d_142_646" x="15.6899" y="14.8311" width="19.4609" height="19.9922" filterUnits="userSpaceOnUse" color-interpolation-filters="sRGB">
<feFlood flood-opacity="0" result="BackgroundImageFix"/>
<feColorMatrix in="SourceAlpha" type="matrix" values="0 0 0 0 0 0 0 0 0 0 0 0 0 0 0 0 0 0 127 0" result="hardAlpha"/>
<feOffset dy="1.25"/>
<feGaussianBlur stdDeviation="0.625"/>
<feColorMatrix type="matrix" values="0 0 0 0 1 0 0 0 0 1 0 0 0 0 1 0 0 0 0.5 0"/>
<feBlend mode="normal" in2="BackgroundImageFix" result="effect1_dropShadow_142_646"/>
<feBlend mode="normal" in="SourceGraphic" in2="effect1_dropShadow_142_646" result="shape"/>
</filter>
</defs>
</svg>
