<svg width="50" height="50" viewBox="0 0 50 50" fill="none" xmlns="http://www.w3.org/2000/svg">
<g filter="url(#filter0_d_142_652)">
<circle cx="25.4243" cy="23.8389" r="22" fill="white" fill-opacity="0.49"/>
<circle cx="25.4243" cy="23.8389" r="21.375" stroke="white" stroke-opacity="0.297012" stroke-width="1.25"/>
</g>
<g filter="url(#filter1_d_142_652)">
<path d="M19.5181 25.5107C19.8514 25.5107 20.1535 25.4274 20.4243 25.2607C20.7004 25.0941 20.9217 24.8753 21.0884 24.6045C21.255 24.3285 21.3384 24.029 21.3384 23.7061C21.3384 23.1956 21.1639 22.7686 20.8149 22.4248C20.4712 22.0758 20.0389 21.9014 19.5181 21.9014C19.1899 21.9014 18.8879 21.9821 18.6118 22.1436C18.341 22.305 18.1222 22.5238 17.9556 22.7998C17.7941 23.0706 17.7134 23.3727 17.7134 23.7061C17.7134 24.029 17.7941 24.3285 17.9556 24.6045C18.1222 24.8753 18.341 25.0941 18.6118 25.2607C18.8879 25.4274 19.1899 25.5107 19.5181 25.5107ZM25.4243 25.5107C25.7472 25.5107 26.0441 25.4274 26.3149 25.2607C26.591 25.0941 26.8123 24.8753 26.979 24.6045C27.1457 24.3285 27.229 24.029 27.229 23.7061C27.229 23.1956 27.0545 22.7686 26.7056 22.4248C26.3618 22.0758 25.9347 21.9014 25.4243 21.9014C25.091 21.9014 24.7863 21.9821 24.5103 22.1436C24.2394 22.305 24.0233 22.5238 23.8618 22.7998C23.7004 23.0706 23.6196 23.3727 23.6196 23.7061C23.6196 24.029 23.7004 24.3285 23.8618 24.6045C24.0233 24.8753 24.2394 25.0941 24.5103 25.2607C24.7863 25.4274 25.091 25.5107 25.4243 25.5107ZM31.3228 25.5107C31.6457 25.5107 31.9425 25.4274 32.2134 25.2607C32.4894 25.0941 32.7108 24.8753 32.8774 24.6045C33.0441 24.3285 33.1274 24.029 33.1274 23.7061C33.1274 23.1956 32.953 22.7686 32.604 22.4248C32.2603 22.0758 31.8332 21.9014 31.3228 21.9014C30.9894 21.9014 30.6847 21.9821 30.4087 22.1436C30.1326 22.305 29.9113 22.5238 29.7446 22.7998C29.5832 23.0706 29.5024 23.3727 29.5024 23.7061C29.5024 24.029 29.5832 24.3285 29.7446 24.6045C29.9113 24.8753 30.1326 25.0941 30.4087 25.2607C30.6847 25.4274 30.9894 25.5107 31.3228 25.5107Z" fill="white"/>
</g>
<defs>
<filter id="filter0_d_142_652" x="0.924316" y="0.588867" width="49" height="49" filterUnits="userSpaceOnUse" color-interpolation-filters="sRGB">
<feFlood flood-opacity="0" result="BackgroundImageFix"/>
<feColorMatrix in="SourceAlpha" type="matrix" values="0 0 0 0 0 0 0 0 0 0 0 0 0 0 0 0 0 0 127 0" result="hardAlpha"/>
<feOffset dy="1.25"/>
<feGaussianBlur stdDeviation="1.25"/>
<feColorMatrix type="matrix" values="0 0 0 0 0 0 0 0 0 0 0 0 0 0 0 0 0 0 0.15 0"/>
<feBlend mode="normal" in2="BackgroundImageFix" result="effect1_dropShadow_142_652"/>
<feBlend mode="normal" in="SourceGraphic" in2="effect1_dropShadow_142_652" result="shape"/>
</filter>
<filter id="filter1_d_142_652" x="16.4634" y="21.9014" width="17.9141" height="6.10938" filterUnits="userSpaceOnUse" color-interpolation-filters="sRGB">
<feFlood flood-opacity="0" result="BackgroundImageFix"/>
<feColorMatrix in="SourceAlpha" type="matrix" values="0 0 0 0 0 0 0 0 0 0 0 0 0 0 0 0 0 0 127 0" result="hardAlpha"/>
<feOffset dy="1.25"/>
<feGaussianBlur stdDeviation="0.625"/>
<feColorMatrix type="matrix" values="0 0 0 0 1 0 0 0 0 1 0 0 0 0 1 0 0 0 0.5 0"/>
<feBlend mode="normal" in2="BackgroundImageFix" result="effect1_dropShadow_142_652"/>
<feBlend mode="normal" in="SourceGraphic" in2="effect1_dropShadow_142_652" result="shape"/>
</filter>
</defs>
</svg>
