<svg width="24" height="24" viewBox="0 0 24 24" fill="none" xmlns="http://www.w3.org/2000/svg">
<path d="M10.8323 0C13.6652 0 15.9756 2.36659 15.9756 5.28023V10.9767H9.00952C8.51028 10.9767 8.11553 11.381 8.11553 11.8924C8.11553 12.3919 8.51028 12.8081 9.00952 12.8081H15.9756V18.4927C15.9756 21.4063 13.6652 23.7848 10.8091 23.7848H5.15493C2.31043 23.7848 0 21.4182 0 18.5046V5.29212C0 2.36659 2.32204 0 5.16654 0H10.8323ZM18.8743 7.78976C19.2166 7.4211 19.7758 7.4211 20.1181 7.77787L23.4502 11.2386C23.6214 11.4169 23.7126 11.6429 23.7126 11.8926C23.7126 12.1305 23.6214 12.3683 23.4502 12.5348L20.1181 15.9955C19.947 16.1739 19.7187 16.269 19.5019 16.269C19.2737 16.269 19.0455 16.1739 18.8743 15.9955C18.532 15.6387 18.532 15.056 18.8743 14.6992L20.7001 12.8084H15.9759V10.9769H20.7001L18.8743 9.08603C18.532 8.72926 18.532 8.14653 18.8743 7.78976Z" fill="#EB4887"/>
</svg>
