<svg width="32" height="28" viewBox="0 0 32 28" fill="none" xmlns="http://www.w3.org/2000/svg">
<path d="M25.9074 22.2963V21.2963H25.2894L25.013 21.8491L25.9074 22.2963ZM24.0556 26L23.4674 26.8087L24.4221 27.503L24.95 26.4472L24.0556 26ZM18.963 22.2963L19.5511 21.4876L19.2881 21.2963H18.963V22.2963ZM4.37036 0C2.16122 0 0.370361 1.79086 0.370361 4H2.37036C2.37036 2.89543 3.26579 2 4.37036 2V0ZM28 0H4.37036V2H28V0ZM32 4C32 1.79086 30.2091 0 28 0V2C29.1046 2 30 2.89543 30 4H32ZM32 19.2963V4H30V19.2963H32ZM28 23.2963C30.2091 23.2963 32 21.5054 32 19.2963H30C30 20.4009 29.1046 21.2963 28 21.2963V23.2963ZM25.9074 23.2963H28V21.2963H25.9074V23.2963ZM24.95 26.4472L26.8018 22.7435L25.013 21.8491L23.1611 25.5528L24.95 26.4472ZM18.3748 23.105L23.4674 26.8087L24.6437 25.1913L19.5511 21.4876L18.3748 23.105ZM4.37036 23.2963H18.963V21.2963H4.37036V23.2963ZM0.370361 19.2963C0.370361 21.5054 2.16122 23.2963 4.37036 23.2963V21.2963C3.26579 21.2963 2.37036 20.4009 2.37036 19.2963H0.370361ZM0.370361 4V19.2963H2.37036V4H0.370361ZM9.02771 6.90739C8.33736 6.90739 7.77771 7.46704 7.77771 8.15739H9.77771C9.77771 8.57161 9.44193 8.90739 9.02771 8.90739V6.90739ZM22.4166 6.90739H9.02771V8.90739H22.4166V6.90739ZM23.6666 8.15739C23.6666 7.46704 23.107 6.90739 22.4166 6.90739V8.90739C22.0024 8.90739 21.6666 8.57161 21.6666 8.15739H23.6666ZM22.4166 9.40739C23.107 9.40739 23.6666 8.84775 23.6666 8.15739H21.6666C21.6666 7.74318 22.0024 7.40739 22.4166 7.40739V9.40739ZM9.02771 9.40739H22.4166V7.40739H9.02771V9.40739ZM7.77771 8.15739C7.77771 8.84775 8.33736 9.40739 9.02771 9.40739V7.40739C9.44193 7.40739 9.77771 7.74318 9.77771 8.15739H7.77771ZM9.02771 13.3889C8.33736 13.3889 7.77771 13.9485 7.77771 14.6389H9.77771C9.77771 15.0531 9.44193 15.3889 9.02771 15.3889V13.3889ZM18.7129 13.3889H9.02771V15.3889H18.7129V13.3889ZM19.9629 14.6389C19.9629 13.9485 19.4033 13.3889 18.7129 13.3889V15.3889C18.2987 15.3889 17.9629 15.0531 17.9629 14.6389H19.9629ZM18.7129 15.8889C19.4033 15.8889 19.9629 15.3292 19.9629 14.6389H17.9629C17.9629 14.2247 18.2987 13.8889 18.7129 13.8889V15.8889ZM9.02771 15.8889H18.7129V13.8889H9.02771V15.8889ZM7.77771 14.6389C7.77771 15.3292 8.33736 15.8889 9.02771 15.8889V13.8889C9.44193 13.8889 9.77771 14.2247 9.77771 14.6389H7.77771Z" fill="#33196B"/>
</svg>
