<svg width="15" height="18" viewBox="0 0 15 18" fill="none" xmlns="http://www.w3.org/2000/svg">
<path d="M5.64588 14.7743C6.06714 14.6801 8.64094 14.6475 9.06447 14.7311C9.42662 14.8095 9.81957 14.9984 9.82498 15.4218C9.80913 15.825 9.57605 16.1853 9.25061 16.4164C8.82907 16.7519 8.3321 16.9674 7.81074 17.0493C7.52235 17.0902 7.23853 17.0947 6.95924 17.0601C6.43512 16.9913 5.93281 16.7885 5.50367 16.4629C5.1716 16.241 4.92939 15.8867 4.90325 15.484C4.89785 15.0607 5.28585 14.8618 5.64588 14.7743ZM7.2201 0.270055C8.97767 0.247837 10.7836 1.05484 11.8677 2.41799C12.571 3.29567 12.8997 4.17723 12.9173 5.55386L12.9218 5.91199C12.9353 6.96774 13.2238 7.58647 13.8501 8.29577C14.3246 8.81815 14.4827 9.49442 14.4921 10.2301C14.5015 10.965 14.2677 11.6657 13.7888 12.2383C13.1609 12.9253 12.2688 13.3701 11.3536 13.4571C10.0274 13.5865 8.70012 13.6981 7.35402 13.7151C6.00707 13.7321 4.67872 13.6922 3.34916 13.5583C2.4312 13.4945 1.52798 13.0724 0.883624 12.4014C0.39018 11.8411 0.137745 11.1466 0.12836 10.4117C0.118963 9.676 0.260616 8.99594 0.720765 8.46174C1.34813 7.7366 1.60218 7.11101 1.5887 6.05526L1.58412 5.69713C1.56607 4.28325 1.90863 3.35424 2.62681 2.43997C3.6949 1.10635 5.42389 0.292762 7.14452 0.271011L7.2201 0.270055Z" fill="#EB4585"/>
</svg>
