<svg width="19" height="16" viewBox="0 0 19 16" fill="none" xmlns="http://www.w3.org/2000/svg">
<path d="M9.50766 3.34029L8.7931 2.50394C8.55647 2.22699 7.80982 1.56519 6.77801 1.21863C5.79093 0.887081 4.55916 0.843246 3.18854 1.71446L3.18827 1.71404C2.85859 1.93535 1.49491 2.88655 1.39783 4.72744L9.50766 3.34029ZM9.50766 3.34029L10.286 2.50322M9.50766 3.34029L10.286 2.50322M10.286 2.50322C10.5374 2.23289 11.3238 1.58203 12.3719 1.23481C13.3766 0.901993 14.5983 0.850161 15.884 1.67965L15.8865 1.68125M10.286 2.50322L15.8865 1.68125M15.8865 1.68125C16.2583 1.91949 17.4333 2.82044 17.5033 4.4806C17.56 5.9217 16.7913 7.33632 15.3089 8.91634C14.0843 10.2217 12.503 11.5077 10.7804 12.9086C10.4125 13.2078 10.0381 13.5122 9.6594 13.8233L9.6594 13.8233M15.8865 1.68125L9.6594 13.8233M9.6594 13.8233L9.656 13.8261M9.6594 13.8233L9.656 13.8261M9.656 13.8261C9.50942 13.9475 9.31088 14.0188 9.08552 14.0188C8.89094 14.0188 8.7007 13.952 8.5488 13.8178M9.656 13.8261L8.5488 13.8178M8.5488 13.8178C8.34143 13.6339 8.13841 13.4541 7.93974 13.2782C5.79498 11.3788 4.15748 9.92866 3.03302 8.59478C1.82655 7.1636 1.33088 6.00199 1.39782 4.72758L8.5488 13.8178Z" stroke="#DD3662" stroke-width="2"/>
</svg>
