<svg width="17" height="15" viewBox="0 0 17 15" fill="none" xmlns="http://www.w3.org/2000/svg">
<path d="M13.7598 12.0742L14.207 12.2978L14.5688 11.5742H13.7598V12.0742ZM12.7968 14.0001L12.5027 14.4045L12.9801 14.7517L13.244 14.2238L12.7968 14.0001ZM10.1486 12.0742V11.5742H8.61106L9.85456 12.4786L10.1486 12.0742ZM4 0.5C2.067 0.5 0.5 2.067 0.5 4H1.5C1.5 2.61929 2.61929 1.5 4 1.5V0.5ZM13.4074 0.5H4V1.5H13.4074V0.5ZM16.9074 4C16.9074 2.067 15.3404 0.5 13.4074 0.5V1.5C14.7881 1.5 15.9074 2.61929 15.9074 4H16.9074ZM16.9074 9.0741V4H15.9074V9.0741H16.9074ZM13.4074 12.5741C15.3404 12.5741 16.9074 11.0071 16.9074 9.0741H15.9074C15.9074 10.4548 14.7881 11.5741 13.4074 11.5741V12.5741ZM4 12.5741H13.4074V11.5741H4V12.5741ZM0.5 9.0741C0.5 11.0071 2.067 12.5741 4 12.5741V11.5741C2.61929 11.5741 1.5 10.4548 1.5 9.0741H0.5ZM0.5 4V9.0741H1.5V4H0.5ZM13.3126 11.8506L12.3496 13.7765L13.244 14.2238L14.207 12.2978L13.3126 11.8506ZM10.1486 12.5742H13.7598V11.5742H10.1486V12.5742ZM13.0909 13.5958L10.4427 11.6699L9.85456 12.4786L12.5027 14.4045L13.0909 13.5958ZM4.95156 4.15137C4.62019 4.15137 4.35156 4.42 4.35156 4.75137H5.35156C5.35156 4.97228 5.17248 5.15137 4.95156 5.15137V4.15137ZM11.9738 4.15137H4.95156V5.15137H11.9738V4.15137ZM12.5738 4.75137C12.5738 4.42 12.3052 4.15137 11.9738 4.15137V5.15137C11.7529 5.15137 11.5738 4.97228 11.5738 4.75137H12.5738ZM11.9738 5.35137C12.3052 5.35137 12.5738 5.08274 12.5738 4.75137H11.5738C11.5738 4.53045 11.7529 4.35137 11.9738 4.35137V5.35137ZM4.95156 5.35137H11.9738V4.35137H4.95156V5.35137ZM4.35156 4.75137C4.35156 5.08274 4.62019 5.35137 4.95156 5.35137V4.35137C5.17248 4.35137 5.35156 4.53045 5.35156 4.75137H4.35156ZM4.95156 7.5217C4.62019 7.5217 4.35156 7.79033 4.35156 8.1217H5.35156C5.35156 8.34262 5.17248 8.5217 4.95156 8.5217V7.5217ZM10.0479 7.5217H4.95156V8.5217H10.0479V7.5217ZM10.6479 8.1217C10.6479 7.79033 10.3792 7.5217 10.0479 7.5217V8.5217C9.82696 8.5217 9.64787 8.34262 9.64787 8.1217H10.6479ZM10.0479 8.7217C10.3792 8.7217 10.6479 8.45307 10.6479 8.1217H9.64787C9.64787 7.90079 9.82695 7.7217 10.0479 7.7217V8.7217ZM4.95156 8.7217H10.0479V7.7217H4.95156V8.7217ZM4.35156 8.1217C4.35156 8.45307 4.62019 8.7217 4.95156 8.7217V7.7217C5.17248 7.7217 5.35156 7.90079 5.35156 8.1217H4.35156Z" fill="#DD3662"/>
</svg>
