<svg width="14" height="17" viewBox="0 0 14 17" fill="none" xmlns="http://www.w3.org/2000/svg">
<path d="M7 0L13.391 1.411C13.5637 1.44914 13.7182 1.54466 13.8289 1.68177C13.9396 1.81888 14 1.9894 14 2.16518V9.88241C13.9999 10.6457 13.8102 11.3971 13.4477 12.07C13.0852 12.7429 12.561 13.3165 11.9218 13.7399L7 17L2.07822 13.7399C1.4391 13.3166 0.915025 12.7431 0.552493 12.0703C0.189961 11.3976 0.000183833 10.6463 0 9.88318V2.16518C3.03627e-05 1.9894 0.0603851 1.81888 0.171103 1.68177C0.281821 1.54466 0.436284 1.44914 0.609 1.411L7 0ZM7 4.63636C6.65758 4.63638 6.32474 4.74864 6.05308 4.95575C5.78143 5.16285 5.58614 5.45322 5.49752 5.78182C5.40889 6.11042 5.43188 6.4589 5.56291 6.7732C5.69394 7.0875 5.92569 7.35007 6.22222 7.52018V10.8182H7.77778L7.77856 7.52018C8.07515 7.35004 8.30693 7.0874 8.43795 6.77302C8.56896 6.45864 8.59188 6.11009 8.50316 5.78145C8.41443 5.4528 8.21902 5.16243 7.94723 4.95539C7.67545 4.74835 7.34248 4.63621 7 4.63636Z" fill="#EB4585"/>
</svg>
