<svg width="22" height="24" viewBox="0 0 22 24" fill="none" xmlns="http://www.w3.org/2000/svg">
<path d="M0 16.5176C0 14.6447 1.51832 13.1263 3.39125 13.1263H5.65616C6.27822 13.1263 6.7825 12.6221 6.7825 12C6.7825 11.3779 6.27822 10.8737 5.65616 10.8737H3.39125C1.51831 10.8737 0 9.35534 0 7.4824V0.563077C1.68155e-05 0.465214 0.0256269 0.369044 0.0743062 0.284047C0.122985 0.19905 0.193053 0.128159 0.277604 0.0783616C0.362155 0.0285643 0.458269 0.00157961 0.556474 6.72672e-05C0.654679 -0.00144508 0.751584 0.0225671 0.837639 0.0697371L21.7074 11.5067C21.796 11.5553 21.8699 11.6267 21.9214 11.7135C21.9728 11.8003 22 11.8992 22 12C22 12.1008 21.9728 12.1997 21.9214 12.2865C21.8699 12.3733 21.796 12.4447 21.7074 12.4933L0.837639 23.9303C0.751584 23.9774 0.654679 24.0014 0.556474 23.9999C0.458269 23.9984 0.362155 23.9714 0.277604 23.9216C0.193053 23.8718 0.122985 23.8009 0.0743062 23.716C0.0256269 23.631 1.68155e-05 23.5348 0 23.4369V16.5176Z" fill="#EB4585"/>
</svg>
