<svg width="24" height="24" viewBox="0 0 24 24" fill="none" xmlns="http://www.w3.org/2000/svg">
<g clip-path="url(#clip0_6616_7019)">
<path d="M12 16.5C14.4853 16.5 16.5 14.4853 16.5 12C16.5 9.51472 14.4853 7.5 12 7.5C9.51472 7.5 7.5 9.51472 7.5 12C7.5 14.4853 9.51472 16.5 12 16.5Z" stroke="#DE9595" stroke-width="1.28571" stroke-linecap="round" stroke-linejoin="round"/>
<path d="M18.5064 7.561C18.7282 7.8867 18.9253 8.2286 19.0959 8.58381L21.5283 9.93414C21.8246 11.2949 21.8256 12.7034 21.5313 14.0645L19.0975 15.4156C18.9263 15.7706 18.7288 16.1121 18.5064 16.4375L18.5533 19.2192C17.5229 20.1562 16.3037 20.8613 14.9777 21.287L12.5907 19.8548C12.1978 19.8841 11.8032 19.8837 11.4102 19.8539L9.0246 21.2853C7.69801 20.8615 6.47773 20.1581 5.44607 19.2227L5.49292 16.4394C5.27109 16.1137 5.07406 15.7718 4.90347 15.4166L2.47101 14.0663C2.17473 12.7055 2.17372 11.297 2.46803 9.93585L4.90184 8.58478C5.07299 8.22983 5.27057 7.88824 5.4929 7.5629L5.44608 4.78117C6.47639 3.8442 7.69565 3.13909 9.02162 2.71338L11.4086 4.14559C11.8016 4.11633 12.1962 4.11665 12.5891 4.14652L14.9747 2.7151C16.3013 3.1389 17.5216 3.84225 18.5533 4.77772L18.5064 7.561Z" stroke="#DE9595" stroke-width="1.28571" stroke-linecap="round" stroke-linejoin="round"/>
</g>
<defs>
<clipPath id="clip0_6616_7019">
<rect width="24" height="24" fill="white"/>
</clipPath>
</defs>
</svg>
