<svg width="14" height="15" viewBox="0 0 14 15" fill="none" xmlns="http://www.w3.org/2000/svg">
<path d="M13.2222 15H0.777778C0.571498 15 0.373667 14.921 0.227806 14.7803C0.0819442 14.6397 0 14.4489 0 14.25V0.75C0 0.551088 0.0819442 0.360322 0.227806 0.21967C0.373667 0.0790176 0.571498 0 0.777778 0H13.2222C13.4285 0 13.6263 0.0790176 13.7722 0.21967C13.9181 0.360322 14 0.551088 14 0.75V14.25C14 14.4489 13.9181 14.6397 13.7722 14.7803C13.6263 14.921 13.4285 15 13.2222 15ZM3.11111 3V6H6.22222V3H3.11111ZM3.11111 7.5V9H10.8889V7.5H3.11111ZM3.11111 10.5V12H10.8889V10.5H3.11111ZM7.77778 3.75V5.25H10.8889V3.75H7.77778Z" fill="#EB4585"/>
</svg>
