<svg width="20" height="19" viewBox="0 0 20 19" fill="none" xmlns="http://www.w3.org/2000/svg">
<path d="M2.54392 10.7954L9.34809 17.4034C9.59792 17.646 9.72283 17.7673 9.87188 17.7947C9.93176 17.8058 9.99315 17.8058 10.053 17.7947C10.2021 17.7673 10.327 17.646 10.5768 17.4034L17.381 10.7954C19.2227 9.00682 19.448 6.12814 17.907 4.07479L17.5216 3.56133C15.6359 1.04859 11.7503 1.46063 10.4335 4.31299C10.248 4.71481 9.6769 4.71481 9.4914 4.31299C8.17458 1.46063 4.28903 1.04858 2.40326 3.56132L2.01791 4.07479C0.47691 6.12813 0.702221 9.00683 2.54392 10.7954Z" fill="white" stroke="white" stroke-width="2"/>
</svg>
