<svg width="23" height="17" viewBox="0 0 23 17" fill="none" xmlns="http://www.w3.org/2000/svg">
<path d="M16.7273 5.525L22.1772 1.64688C22.2556 1.59105 22.3475 1.55815 22.443 1.55178C22.5385 1.54541 22.6339 1.56581 22.7188 1.61074C22.8037 1.65568 22.8748 1.72344 22.9244 1.80662C22.9739 1.88981 23.0001 1.98524 23 2.0825V14.9175C23.0001 15.0148 22.9739 15.1102 22.9244 15.1934C22.8748 15.2766 22.8037 15.3443 22.7188 15.3893C22.6339 15.4342 22.5385 15.4546 22.443 15.4482C22.3475 15.4418 22.2556 15.409 22.1772 15.3531L16.7273 11.475V15.9375C16.7273 16.2193 16.6171 16.4895 16.4211 16.6888C16.225 16.8881 15.9591 17 15.6818 17H1.04545C0.768183 17 0.502267 16.8881 0.306206 16.6888C0.110146 16.4895 0 16.2193 0 15.9375V1.0625C0 0.780707 0.110146 0.510457 0.306206 0.311199C0.502267 0.111942 0.768183 0 1.04545 0H15.6818C15.9591 0 16.225 0.111942 16.4211 0.311199C16.6171 0.510457 16.7273 0.780707 16.7273 1.0625V5.525ZM4.18182 4.25V6.375H6.27273V4.25H4.18182Z" fill="white"/>
</svg>
