<svg width="13" height="12" viewBox="0 0 13 12" fill="none" xmlns="http://www.w3.org/2000/svg">
<path d="M0.65 0H12.35C12.5224 0 12.6877 0.0702379 12.8096 0.195262C12.9315 0.320286 13 0.489856 13 0.666667V11.3333C13 11.5101 12.9315 11.6797 12.8096 11.8047C12.6877 11.9298 12.5224 12 12.35 12H0.65C0.477609 12 0.312279 11.9298 0.190381 11.8047C0.0684819 11.6797 0 11.5101 0 11.3333V0.666667C0 0.489856 0.0684819 0.320286 0.190381 0.195262C0.312279 0.0702379 0.477609 0 0.65 0ZM5.85 3.66667V8.33333H7.15V3.66667H5.85ZM5.66475 3.66667H4.29065L3.3176 6.40867L2.34455 3.66667H0.97045L2.6676 8.30933H3.9676L5.66475 3.66667ZM9.1 7H10.075C10.506 7 10.9193 6.82441 11.224 6.51184C11.5288 6.19928 11.7 5.77536 11.7 5.33333C11.7 4.89131 11.5288 4.46738 11.224 4.15482C10.9193 3.84226 10.506 3.66667 10.075 3.66667H7.8V8.33333H9.1V7ZM9.1 5.66667V5H10.075C10.1612 5 10.2439 5.03512 10.3048 5.09763C10.3658 5.16014 10.4 5.24493 10.4 5.33333C10.4 5.42174 10.3658 5.50652 10.3048 5.56904C10.2439 5.63155 10.1612 5.66667 10.075 5.66667H9.1Z" fill="#EB4585"/>
</svg>
